<?xml version="1.0" standalone="no"?>
<!DOCTYPE svg PUBLIC "-//W3C//DTD SVG 20010904//EN"
 "http://www.w3.org/TR/2001/REC-SVG-20010904/DTD/svg10.dtd">
<svg version="1.0" xmlns="http://www.w3.org/2000/svg"
 width="108.000000pt" height="108.000000pt" viewBox="0 0 108.000000 108.000000"
 preserveAspectRatio="xMidYMid meet">
<metadata>
Created by potrace 1.11, written by Peter Selinger 2001-2013
</metadata>
<g transform="translate(0.000000,108.000000) scale(0.100000,-0.100000)"
fill="#000000" stroke="none">
<path d="M403 1045 c-98 -27 -199 -93 -268 -175 -41 -48 -90 -146 -100 -195
-4 -24 -3 -26 4 -10 7 14 9 -27 9 -125 0 -97 -3 -137 -9 -120 -7 21 -8 19 -4
-10 8 -56 70 -171 120 -223 99 -103 213 -155 355 -164 293 -18 549 221 550
512 0 143 -50 265 -150 365 -70 70 -160 124 -244 146 -65 18 -196 17 -263 -1z
m-101 -375 l123 -129 88 87 87 87 138 -138 138 -137 44 45 c24 25 48 45 52 45
4 0 8 -56 8 -125 l0 -125 -132 0 -132 0 49 50 49 50 -104 105 -105 105 -87
-87 -87 -86 -165 158 -166 159 32 33 c17 18 35 33 39 33 4 0 63 -58 131 -130z"/>
<path d="M23 595 c0 -27 2 -38 4 -22 2 15 2 37 0 50 -2 12 -4 0 -4 -28z"/>
<path d="M23 495 c0 -27 2 -38 4 -22 2 15 2 37 0 50 -2 12 -4 0 -4 -28z"/>
</g>
</svg>
