<?xml version="1.0" standalone="no"?>
<!DOCTYPE svg PUBLIC "-//W3C//DTD SVG 20010904//EN"
 "http://www.w3.org/TR/2001/REC-SVG-20010904/DTD/svg10.dtd">
<svg version="1.0" xmlns="http://www.w3.org/2000/svg"
 width="133.000000pt" height="133.000000pt" viewBox="0 0 133.000000 133.000000"
 preserveAspectRatio="xMidYMid meet">
<metadata>
Created by potrace 1.11, written by Peter Selinger 2001-2013
</metadata>
<g transform="translate(0.000000,133.000000) scale(0.100000,-0.100000)"
fill="#000000" stroke="none">
<path d="M575 1264 c-242 -51 -406 -189 -486 -409 -27 -74 -32 -260 -10 -340
44 -156 176 -316 316 -381 136 -63 256 -78 387 -48 247 56 423 242 465 494 14
81 14 99 0 180 -17 104 -63 208 -124 286 -49 61 -149 138 -221 170 -94 41
-248 64 -327 48z m175 -53 c69 -12 162 -46 192 -72 l23 -19 -90 6 c-76 6 -103
13 -172 46 -46 21 -83 41 -83 43 0 8 71 6 130 -4z m-100 -64 l55 -25 -30 -12
c-68 -27 -89 -25 -144 16 -28 21 -51 42 -51 48 0 16 114 -1 170 -27z m-202
-16 c20 -10 47 -30 60 -44 l23 -24 -72 -42 c-39 -22 -75 -41 -79 -41 -20 0
-27 118 -10 151 13 24 31 24 78 0z m523 -66 c54 -15 89 -35 89 -51 0 -6 -27
-14 -62 -18 l-62 -6 -43 42 c-24 23 -43 46 -43 51 0 9 53 1 121 -18z m-646
-70 l7 -60 -46 -45 -46 -44 0 34 c0 43 16 101 43 158 24 52 33 43 42 -43z
m504 39 c28 -25 51 -51 51 -58 0 -11 -123 -66 -147 -66 -5 0 -32 29 -61 65
-55 70 -55 72 13 92 72 20 89 16 144 -33z m-201 -72 c57 -73 62 -88 33 -97
-11 -3 -58 -30 -106 -60 -48 -30 -91 -55 -95 -55 -11 0 -72 161 -67 175 4 9
165 105 177 105 3 0 29 -31 58 -68z m-423 -24 c-4 -17 -9 -59 -10 -92 -2 -48
-12 -78 -43 -139 -22 -43 -42 -74 -45 -70 -6 9 9 153 19 186 12 42 67 147 76
147 6 0 7 -14 3 -32z m923 10 c7 -7 12 -20 12 -30 0 -21 -39 -86 -66 -109 -18
-16 -21 -14 -61 58 -41 73 -41 74 -20 83 33 13 121 12 135 -2z m-185 -50 c23
-30 77 -131 77 -142 0 -3 -27 -28 -61 -56 -57 -47 -89 -62 -89 -41 0 6 -25 53
-56 106 -32 54 -53 100 -48 104 9 9 134 60 146 61 4 0 18 -15 31 -32z m-556
-99 l32 -80 -26 -22 c-15 -12 -43 -37 -64 -54 -20 -18 -39 -33 -42 -33 -6 0
-33 84 -41 131 -6 33 -2 41 40 88 25 28 51 51 57 51 7 0 26 -37 44 -81z m366
-16 c45 -75 87 -154 87 -164 0 -11 -59 -49 -159 -102 -60 -33 -75 -37 -82 -26
-34 55 -119 204 -119 210 0 11 204 136 227 138 6 1 27 -25 46 -56z m417 14 c0
-43 -32 -153 -49 -170 -5 -5 -16 14 -25 46 -18 62 -20 87 -7 87 4 0 21 18 36
40 15 22 32 40 36 40 5 0 9 -20 9 -43z m37 -169 c-6 -92 -20 -146 -57 -216
-38 -73 -40 -71 -33 33 5 78 11 108 28 135 12 19 30 59 40 88 11 28 21 52 23
52 3 0 2 -42 -1 -92z m-989 45 c6 -21 15 -52 20 -70 9 -29 6 -37 -35 -92 -25
-34 -47 -61 -50 -61 -13 0 5 177 20 205 10 17 17 36 17 43 0 26 18 10 28 -25z
m832 1 c6 -14 13 -49 16 -78 l6 -54 -52 -53 -52 -54 -29 75 c-16 41 -28 81
-27 88 3 12 107 100 121 101 4 1 12 -11 17 -25z m-550 -102 c30 -53 56 -102
58 -108 2 -6 -12 -17 -30 -23 -18 -7 -48 -19 -66 -27 -18 -8 -40 -14 -50 -14
-17 0 -60 58 -95 127 l-17 32 63 55 c34 31 67 56 72 56 6 0 35 -44 65 -98z
m382 -39 c52 -120 53 -123 27 -141 -49 -36 -135 -81 -154 -81 -19 0 -96 85
-110 120 -4 10 11 23 47 42 29 14 78 42 108 61 30 19 58 35 61 35 3 1 12 -16
21 -36z m-573 -79 c44 -74 39 -84 -49 -84 -64 0 -70 2 -70 21 0 24 60 119 75
119 6 0 25 -25 44 -56z m771 -2 c0 -52 -51 -192 -70 -192 -4 0 -11 28 -17 63
l-11 62 41 43 c45 46 57 51 57 24z m-431 -102 l53 -65 -54 -17 c-83 -26 -98
-24 -159 31 -60 55 -60 59 16 86 28 10 54 22 60 27 17 15 31 5 84 -62z m308
-70 c8 -66 -15 -105 -55 -95 -56 14 -140 95 -99 95 6 0 39 17 72 39 68 43 72
41 82 -39z m-527 15 l44 -45 -47 0 c-48 0 -141 31 -166 55 -15 15 -8 18 59 28
57 9 67 6 110 -38z m325 -65 c10 -12 34 -30 52 -41 46 -29 32 -43 -33 -35 -57
7 -146 37 -151 52 -2 7 68 35 108 43 3 0 14 -8 24 -19z m-302 -26 c66 -5 95
-12 148 -40 37 -19 74 -34 84 -34 9 0 13 -4 10 -10 -8 -14 -78 -12 -150 4 -68
15 -188 67 -200 86 -6 10 -4 12 9 7 9 -4 54 -9 99 -13z"/>
</g>
</svg>
